# xmcd
#
# Track frame offsets:
# 150
# 28749
# 43508
# 61505
# 65914
# 81130
# 97462
# 112425
# 135420
# 156420
# 156950
# 173893
# 196674
# 221996
# 241496
# 261214
#
# Disc length: 3547 seconds
#
#
# Revision: 2
# Processed by: cddbd v1.5.2PL0 Copyright (c) Steve Scherf et al.
# Submitted via: FreeRIP 2.951 
#
DISCID=f10dd910
DTITLE=Bad Fathers - Go Poke a Hole in Yourself
DYEAR=2004
DGENRE=Hip-Hop
TTITLE0=January
TTITLE1=Animal Testing
TTITLE2=Too Fat To Strip
TTITLE3=Bring Me The Pussy
TTITLE4=Covered In Puppies
TTITLE5=Mob Music
TTITLE6=Psycho Bitch Blizzard
TTITLE7=She
TTITLE8=Finally
TTITLE9=Leaves
TTITLE10=The Gangster
TTITLE11=32 Ravers And Then Some
TTITLE12=Last Minutes On The Land Phone
TTITLE13=Delusional As Usual
TTITLE14=Pissing Roaches Off The Urinal
TTITLE15=Intro To January
EXTD=
EXTT0=
EXTT1=
EXTT2=
EXTT3=
EXTT4=
EXTT5=
EXTT6=
EXTT7=
EXTT8=
EXTT9=
EXTT10=
EXTT11=
EXTT12=
EXTT13=
EXTT14=
EXTT15=
PLAYORDER=
